<svg width="54" height="54" viewBox="0 0 54 54" fill="none" xmlns="http://www.w3.org/2000/svg">
<rect width="54" height="54" rx="27" fill="#CA0C0C"/>
<path d="M17.6909 24.5786C17.6909 25.1375 17.5747 25.6217 17.3423 26.0312C17.1099 26.4408 16.7944 26.7756 16.396 27.0356C16.0031 27.2957 15.5604 27.4867 15.0679 27.6084V27.6582C16.0418 27.7799 16.7806 28.0788 17.2842 28.5547C17.7933 29.0306 18.0479 29.667 18.0479 30.4639C18.0479 31.1722 17.8735 31.8058 17.5249 32.3647C17.1818 32.9237 16.6506 33.3636 15.9312 33.6846C15.2118 34.0055 14.2848 34.166 13.1504 34.166C12.4808 34.166 11.8555 34.1107 11.2744 34C10.6989 33.8949 10.1566 33.7316 9.64746 33.5103V31.3271C10.1676 31.5928 10.7127 31.7948 11.2827 31.9331C11.8527 32.0659 12.384 32.1323 12.8765 32.1323C13.7951 32.1323 14.437 31.9746 14.8022 31.6592C15.173 31.3382 15.3584 30.89 15.3584 30.3145C15.3584 29.9769 15.2726 29.6919 15.1011 29.4595C14.9295 29.2271 14.6307 29.05 14.2046 28.9282C13.784 28.8065 13.1947 28.7456 12.4365 28.7456H11.5151V26.7783H12.4531C13.2002 26.7783 13.7674 26.7091 14.1548 26.5708C14.5477 26.4269 14.8133 26.2332 14.9517 25.9897C15.0955 25.7407 15.1675 25.4585 15.1675 25.1431C15.1675 24.7114 15.0347 24.3739 14.769 24.1304C14.5034 23.8869 14.0607 23.7651 13.4409 23.7651C13.0535 23.7651 12.6994 23.8149 12.3784 23.9146C12.063 24.0086 11.778 24.1248 11.5234 24.2632C11.2689 24.396 11.0448 24.526 10.8511 24.6533L9.66406 22.8853C10.14 22.5422 10.6961 22.2572 11.3325 22.0303C11.9744 21.8034 12.7381 21.6899 13.6235 21.6899C14.8742 21.6899 15.8647 21.9417 16.5952 22.4453C17.3257 22.9489 17.6909 23.66 17.6909 24.5786ZM28.6762 27.9321C28.6762 28.9116 28.5987 29.786 28.4438 30.5552C28.2943 31.3244 28.0508 31.9774 27.7133 32.5142C27.3813 33.0509 26.9441 33.4604 26.4018 33.7427C25.8594 34.0249 25.2009 34.166 24.4262 34.166C23.4522 34.166 22.6526 33.9198 22.0272 33.4272C21.4019 32.9292 20.9398 32.2153 20.641 31.2856C20.3422 30.3504 20.1928 29.2326 20.1928 27.9321C20.1928 26.6206 20.3284 25.5 20.5995 24.5703C20.8762 23.6351 21.3244 22.9185 21.9442 22.4204C22.564 21.9224 23.3913 21.6733 24.4262 21.6733C25.3946 21.6733 26.1915 21.9224 26.8168 22.4204C27.4477 22.9129 27.9153 23.6268 28.2196 24.562C28.524 25.4917 28.6762 26.6151 28.6762 27.9321ZM22.7411 27.9321C22.7411 28.8563 22.7909 29.6283 22.8905 30.248C22.9957 30.8623 23.17 31.3244 23.4135 31.6343C23.657 31.9442 23.9945 32.0991 24.4262 32.0991C24.8523 32.0991 25.1871 31.9469 25.4306 31.6426C25.6796 31.3327 25.8567 30.8706 25.9618 30.2563C26.067 29.6366 26.1195 28.8618 26.1195 27.9321C26.1195 27.008 26.067 26.236 25.9618 25.6162C25.8567 24.9964 25.6796 24.5316 25.4306 24.2217C25.1871 23.9062 24.8523 23.7485 24.4262 23.7485C23.9945 23.7485 23.657 23.9062 23.4135 24.2217C23.17 24.5316 22.9957 24.9964 22.8905 25.6162C22.7909 26.236 22.7411 27.008 22.7411 27.9321ZM33.5438 21.6899C34.4956 21.6899 35.2177 22.022 35.7103 22.686C36.2028 23.3501 36.449 24.2826 36.449 25.4834C36.449 26.6842 36.2166 27.6222 35.7518 28.2974C35.2869 28.9725 34.5509 29.3101 33.5438 29.3101C32.6085 29.3101 31.8974 28.9725 31.4104 28.2974C30.9235 27.6222 30.68 26.6842 30.68 25.4834C30.68 24.2826 30.9069 23.3501 31.3606 22.686C31.82 22.022 32.5477 21.6899 33.5438 21.6899ZM33.5604 23.4248C33.2892 23.4248 33.09 23.5964 32.9627 23.9395C32.8354 24.2826 32.7718 24.8027 32.7718 25.5C32.7718 26.1973 32.8354 26.7202 32.9627 27.0688C33.09 27.4175 33.2892 27.5918 33.5604 27.5918C33.8315 27.5918 34.0307 27.4202 34.158 27.0771C34.2908 26.7285 34.3572 26.2028 34.3572 25.5C34.3572 24.8027 34.2908 24.2826 34.158 23.9395C34.0307 23.5964 33.8315 23.4248 33.5604 23.4248ZM42.16 21.8643L35.428 34H33.4358L40.1678 21.8643H42.16ZM42.0438 26.5376C42.9956 26.5376 43.7177 26.8696 44.2103 27.5337C44.7028 28.1978 44.949 29.1302 44.949 30.3311C44.949 31.5264 44.7166 32.4616 44.2518 33.1367C43.7869 33.8118 43.0509 34.1494 42.0438 34.1494C41.1085 34.1494 40.3974 33.8118 39.9104 33.1367C39.4235 32.4616 39.18 31.5264 39.18 30.3311C39.18 29.1302 39.4069 28.1978 39.8606 27.5337C40.32 26.8696 41.0477 26.5376 42.0438 26.5376ZM42.0604 28.2725C41.7892 28.2725 41.59 28.444 41.4627 28.7871C41.3354 29.1302 41.2718 29.6504 41.2718 30.3477C41.2718 31.0449 41.3354 31.5679 41.4627 31.9165C41.59 32.2651 41.7892 32.4395 42.0604 32.4395C42.3315 32.4395 42.5307 32.2679 42.658 31.9248C42.7908 31.5762 42.8572 31.0505 42.8572 30.3477C42.8572 29.6504 42.7908 29.1302 42.658 28.7871C42.5307 28.444 42.3315 28.2725 42.0604 28.2725Z" fill="white"/>
</svg>
